<?xml version="1.0" encoding="utf-8"?>
<svg xmlns="http://www.w3.org/2000/svg" style="margin: auto; display: block; shape-rendering: auto; animation-play-state: running; animation-delay: 0s;" width="280" height="250" preserveAspectRatio="xMidYMid">
<style type="text/css" style="animation-play-state: running; animation-delay: 0s;">
  text {
    text-anchor: middle; font-size: 60px; opacity: 0;
  }
</style>
<g style="transform-origin: 140px 125px; transform: scale(0.75); animation-play-state: running; animation-delay: 0s;">
<g transform="translate(140,125)" style="animation-play-state: running; animation-delay: 0s;">
  <g transform="translate(0,0)" style="animation-play-state: running; animation-delay: 0s;"><g class="path" style="transform: scale(0.91); transform-origin: -139.08px 1.16787px; animation: 1s linear -0.605s infinite normal forwards running breath-3ae9e51b-65b0-4ef6-8670-07d6d3e9de83;"><path d="M24-16.72L24-16.72L24-16.72Q22.32-18.40 22.32-20.80L22.32-20.80L22.32-20.80Q22.32-23.20 24-24.92L24-24.92L24-24.92Q25.68-26.64 28.08-26.64L28.08-26.64L28.08-26.64Q28.80-26.64 29.92-26.32L29.92-26.32L29.92-26.32Q28.40-29.12 24.24-29.12L24.24-29.12L24.24-29.12Q20.08-29.12 16.88-23.84L16.88-23.84L16.88-23.84Q13.68-18.56 13.68-8.16L13.68-8.16L13.68-8.16Q13.68-4.56 15.32-2.84L15.32-2.84L15.32-2.84Q16.96-1.12 19.44-1.12L19.44-1.12L19.44-1.12Q21.92-1.12 23.96-2.08L23.96-2.08L23.96-2.08Q26-3.04 27.20-4.36L27.20-4.36L27.20-4.36Q28.40-5.68 29.28-7.12L29.28-7.12L29.28-7.12Q30.88-9.76 30.88-10.48L30.88-10.48L32.32-9.84L32.32-9.84Q32.08-8.56 30.88-6.44L30.88-6.44L30.88-6.44Q29.68-4.32 28.24-2.96L28.24-2.96L28.24-2.96Q26.80-1.60 24-0.44L24-0.44L24-0.44Q21.20 0.72 17.76 0.72L17.76 0.72L17.76 0.72Q11.28 0.72 7.96-2.36L7.96-2.36L7.96-2.36Q4.64-5.44 4.64-10.80L4.64-10.80L4.64-10.80Q4.64-20.32 9.40-25.72L9.40-25.72L9.40-25.72Q14.16-31.12 22.32-31.12L22.32-31.12L22.32-31.12Q27.84-31.12 30.80-28.32L30.80-28.32L30.80-28.32Q33.76-25.52 33.76-20.96L33.76-20.96L33.76-20.96Q33.76-18.08 32.04-16.56L32.04-16.56L32.04-16.56Q30.32-15.04 28-15.04L28-15.04L28-15.04Q25.68-15.04 24-16.72" fill="#3869c5" stroke="none" stroke-width="none" transform="translate(-158.27996826171875,16.367867787679042)" style="fill: rgb(56, 105, 197); animation-play-state: running; animation-delay: 0s;"></path></g><g class="path" style="transform: scale(0.91); transform-origin: -103.52px 1.16787px; animation: 1s linear -0.55s infinite normal forwards running breath-3ae9e51b-65b0-4ef6-8670-07d6d3e9de83;"><path d="M42.08-29.52L42.08-29.52L42.08-29.52Q40.16-29.52 38.08-27.28L38.08-27.28L36.88-28.24L36.88-28.24Q37.44-29.36 39.36-30.24L39.36-30.24L39.36-30.24Q41.28-31.12 43.60-31.12L43.60-31.12L43.60-31.12Q50.88-31.12 50.88-24.56L50.88-24.56L50.88-24.56Q50.88-21.76 49.44-14.56L49.44-14.56L49.44-14.56Q48-7.36 48-5.12L48-5.12L48-5.12Q48-1.68 51.28-1.68L51.28-1.68L51.28-1.68Q53.60-1.68 55.80-4.40L55.80-4.40L55.80-4.40Q58-7.12 59.60-11.92L59.60-11.92L62.96-30.40L62.96-30.40Q68.88-30.40 71.60-30.88L71.60-30.88L72.64-31.12L67.28-0.88L67.28-0.88Q69.68-1.12 71.28-3.12L71.28-3.12L72.48-2.16L72.48-2.16Q70.08 0.72 66.48 0.72L66.48 0.72L66.48 0.72Q62.88 0.72 60.88-1.04L60.88-1.04L60.88-1.04Q58.88-2.80 58.80-6L58.80-6L58.80-6Q55.44 0.72 48.88 0.72L48.88 0.72L48.88 0.72Q44.16 0.72 41.52-1.96L41.52-1.96L41.52-1.96Q38.88-4.64 38.88-9.36L38.88-9.36L38.88-9.36Q38.88-11.84 40.40-18.92L40.40-18.92L40.40-18.92Q41.92-26 42.08-29.52" fill="#3869c5" stroke="none" stroke-width="none" transform="translate(-158.27996826171875,16.367867787679042)" style="fill: rgb(56, 105, 197); animation-play-state: running; animation-delay: 0s;"></path></g><g class="path" style="transform: scale(0.91); transform-origin: -64.28px 1.16787px; animation: 1s linear -0.495s infinite normal forwards running breath-3ae9e51b-65b0-4ef6-8670-07d6d3e9de83;"><path d="M104.96 0.72L104.96 0.72L104.96 0.72Q97.92 0.72 97.28-5.44L97.28-5.44L97.28-5.44Q93.76 0.72 88.40 0.72L88.40 0.72L88.40 0.72Q83.04 0.72 79.88-2.52L79.88-2.52L79.88-2.52Q76.72-5.76 76.72-11.60L76.72-11.60L76.72-11.60Q76.72-20.72 81.20-25.92L81.20-25.92L81.20-25.92Q85.68-31.12 92.80-31.12L92.80-31.12L92.80-31.12Q98.64-31.12 100.56-25.60L100.56-25.60L100.56-25.60Q100.96-28 101.44-30.40L101.44-30.40L101.44-30.40Q107.36-30.40 110.24-30.88L110.24-30.88L111.28-31.12L105.76-0.88L105.76-0.88Q108.16-1.12 109.76-3.12L109.76-3.12L110.96-2.16L110.96-2.16Q108.56 0.72 104.96 0.72zM85.76-7.52L85.76-7.52Q85.76-3.92 86.68-2.52L86.68-2.52L86.68-2.52Q87.60-1.12 89.52-1.12L89.52-1.12L89.52-1.12Q91.44-1.12 93.44-3.20L93.44-3.20L93.44-3.20Q96.08-5.92 97.68-10.08L97.68-10.08L97.68-10.08Q97.92-11.12 98.60-15.08L98.60-15.08L98.60-15.08Q99.28-19.04 99.76-21.60L99.76-21.60L99.76-21.60Q99.52-24.64 98.08-26.88L98.08-26.88L98.08-26.88Q96.64-29.12 94.48-29.12L94.48-29.12L94.48-29.12Q90.56-29.12 88.16-22.12L88.16-22.12L88.16-22.12Q85.76-15.12 85.76-7.52L85.76-7.52" fill="#3869c5" stroke="none" stroke-width="none" transform="translate(-158.27996826171875,16.367867787679042)" style="fill: rgb(56, 105, 197); animation-play-state: running; animation-delay: 0s;"></path></g><g class="path" style="transform: scale(0.91); transform-origin: -27.8px 0.807868px; animation: 1s linear -0.44s infinite normal forwards running breath-3ae9e51b-65b0-4ef6-8670-07d6d3e9de83;"><path d="M117.12-27.28L115.92-28.24L115.92-28.24Q118.32-31.12 121.96-31.12L121.96-31.12L121.96-31.12Q125.60-31.12 127.60-29.28L127.60-29.28L127.60-29.28Q129.60-27.44 129.60-24.08L129.60-24.08L129.60-23.60L129.60-23.60Q133.20-31.12 138.96-31.12L138.96-31.12L138.96-31.12Q145.12-31.12 145.12-24.72L145.12-24.72L145.12-24.72Q145.12-22.08 143.36-19.12L143.36-19.12L143.36-19.12Q141.60-16.16 139.84-13.48L139.84-13.48L139.84-13.48Q138.08-10.80 138.08-8.72L138.08-8.72L136.16-8.72L136.16-8.72Q136.16-11.68 139.60-16.72L139.60-16.72L139.60-16.72Q143.04-21.76 143.04-24.52L143.04-24.52L143.04-24.52Q143.04-27.28 141.96-28.28L141.96-28.28L141.96-28.28Q140.88-29.28 138.76-29.28L138.76-29.28L138.76-29.28Q136.64-29.28 134.60-27.44L134.60-27.44L134.60-27.44Q132.56-25.60 131.20-22.80L131.20-22.80L131.20-22.80Q129.04-18.64 128.32-16L128.32-16L128.32-15.92L125.44 0L115.84 0L121.12-29.52L121.12-29.52Q118.72-29.28 117.12-27.28L117.12-27.28" fill="#3869c5" stroke="none" stroke-width="none" transform="translate(-158.27996826171875,16.367867787679042)" style="fill: rgb(56, 105, 197); animation-play-state: running; animation-delay: 0s;"></path></g><g class="path" style="transform: scale(0.91); transform-origin: 2.28003px 1.16787px; animation: 1s linear -0.385s infinite normal forwards running breath-3ae9e51b-65b0-4ef6-8670-07d6d3e9de83;"><path d="M164.08-31.12L164.08-31.12L164.08-31.12Q174.24-31.12 174.24-23.04L174.24-23.04L174.24-23.04Q174.24-18 169.48-15.40L169.48-15.40L169.48-15.40Q164.72-12.80 155.92-12.72L155.92-12.72L155.92-12.72Q155.76-9.84 155.76-8.16L155.76-8.16L155.76-8.16Q155.76-4.56 157.40-2.84L157.40-2.84L157.40-2.84Q159.04-1.12 161.52-1.12L161.52-1.12L161.52-1.12Q164-1.12 166.04-2.08L166.04-2.08L166.04-2.08Q168.08-3.04 169.28-4.36L169.28-4.36L169.28-4.36Q170.48-5.68 171.36-7.12L171.36-7.12L171.36-7.12Q172.96-9.76 172.96-10.48L172.96-10.48L174.40-9.84L174.40-9.84Q174.16-8.56 172.96-6.44L172.96-6.44L172.96-6.44Q171.76-4.32 170.32-2.96L170.32-2.96L170.32-2.96Q168.88-1.60 166.08-0.44L166.08-0.44L166.08-0.44Q163.28 0.72 159.84 0.72L159.84 0.72L159.84 0.72Q153.36 0.72 150.04-2.36L150.04-2.36L150.04-2.36Q146.72-5.44 146.72-10.80L146.72-10.80L146.72-10.80Q146.72-20.32 151.44-25.72L151.44-25.72L151.44-25.72Q156.16-31.12 164.08-31.12zM172.24-23.04L172.24-23.04Q172.24-25.68 170.68-27.40L170.68-27.40L170.68-27.40Q169.12-29.12 166.04-29.12L166.04-29.12L166.04-29.12Q162.96-29.12 160.04-25.44L160.04-25.44L160.04-25.44Q157.12-21.76 156.16-14.56L156.16-14.56L156.16-14.56Q172.24-14.64 172.24-23.04L172.24-23.04" fill="#3869c5" stroke="none" stroke-width="none" transform="translate(-158.27996826171875,16.367867787679042)" style="fill: rgb(56, 105, 197); animation-play-state: running; animation-delay: 0s;"></path></g><g class="path" style="transform: scale(0.91); transform-origin: 38.48px 1.16787px; animation: 1s linear -0.33s infinite normal forwards running breath-3ae9e51b-65b0-4ef6-8670-07d6d3e9de83;"><path d="M209.52-0.88L209.52-0.88L209.52-0.88Q211.44-0.88 213.52-3.12L213.52-3.12L214.72-2.16L214.72-2.16Q214.16-1.04 212.24-0.16L212.24-0.16L212.24-0.16Q210.32 0.72 208.00 0.72L208.00 0.72L208.00 0.72Q200.72 0.72 200.72-5.84L200.72-5.84L200.72-5.84Q200.72-8.64 202.16-15.84L202.16-15.84L202.16-15.84Q203.60-23.04 203.60-25.28L203.60-25.28L203.60-25.28Q203.60-28.72 200.32-28.72L200.32-28.72L200.32-28.72Q197.68-28.72 195.24-25.28L195.24-25.28L195.24-25.28Q192.80-21.84 191.20-15.84L191.20-15.84L188.48-0.88L188.48-0.88Q190.96-1.12 192.56-3.12L192.56-3.12L193.76-2.16L193.76-2.16Q191.36 0.72 187.76 0.72L187.76 0.72L187.76 0.72Q184.16 0.72 182.12-1.12L182.12-1.12L182.12-1.12Q180.08-2.96 180.08-5.92L180.08-5.92L180.08-5.92Q180.08-7.04 181.36-14.72L181.36-14.72L184.00-29.52L184.00-29.52Q181.60-29.28 180.00-27.28L180.00-27.28L178.80-28.24L178.80-28.24Q181.20-31.12 184.84-31.12L184.84-31.12L184.84-31.12Q188.48-31.12 190.48-29.28L190.48-29.28L190.48-29.28Q192.48-27.44 192.48-24.08L192.48-24.08L192.48-23.60L192.48-23.60Q195.76-31.12 202.72-31.12L202.72-31.12L202.72-31.12Q207.44-31.12 210.08-28.44L210.08-28.44L210.08-28.44Q212.72-25.76 212.72-21.04L212.72-21.04L212.72-21.04Q212.72-18.56 211.20-11.48L211.20-11.48L211.20-11.48Q209.68-4.40 209.52-0.88" fill="#3869c5" stroke="none" stroke-width="none" transform="translate(-158.27996826171875,16.367867787679042)" style="fill: rgb(56, 105, 197); animation-play-state: running; animation-delay: 0s;"></path></g><g class="path" style="transform: scale(0.91); transform-origin: 72.76px -4.75213px; animation: 1s linear -0.275s infinite normal forwards running breath-3ae9e51b-65b0-4ef6-8670-07d6d3e9de83;"><path d="M219.36-30.40L223.44-30.40L225.60-42.24L225.60-42.24Q231.52-42.24 234.40-42.72L234.40-42.72L235.44-42.96L235.44-42.96Q234.32-37.36 232.96-30.40L232.96-30.40L242.88-30.40L242.72-28.96L232.72-28.96L232.72-28.96Q228.72-8.32 228.72-4.08L228.72-4.08L228.72-4.08Q228.72-1.52 231.44-1.52L231.44-1.52L231.44-1.52Q234.16-1.52 236.40-4.96L236.40-4.96L236.40-4.96Q238.64-8.40 239.60-12.40L239.60-12.40L241.04-11.92L241.04-11.92Q238.08 0.72 228.80 0.72L228.80 0.72L228.80 0.72Q224.96 0.72 222.40-1.40L222.40-1.40L222.40-1.40Q219.84-3.52 219.84-7.32L219.84-7.32L219.84-7.32Q219.84-11.12 223.12-28.96L223.12-28.96L219.20-28.96L219.36-30.40" fill="#3869c5" stroke="none" stroke-width="none" transform="translate(-158.27996826171875,16.367867787679042)" style="fill: rgb(56, 105, 197); animation-play-state: running; animation-delay: 0s;"></path></g><g class="path" style="transform: scale(0.91); transform-origin: 94.08px 1.16787px; animation: 1s linear -0.22s infinite normal forwards running breath-3ae9e51b-65b0-4ef6-8670-07d6d3e9de83;"><path d="M259.04-2.16L259.04-2.16Q256.64 0.72 253.04 0.72L253.04 0.72L253.04 0.72Q249.44 0.72 247.40-1.12L247.40-1.12L247.40-1.12Q245.36-2.96 245.36-5.92L245.36-5.92L245.36-5.92Q245.36-6.96 246.64-14.64L246.64-14.64L249.28-28.96L245.92-28.96L246.08-30.40L249.52-30.40L249.52-30.40Q255.44-30.40 258.24-30.88L258.24-30.88L259.36-31.12L253.84-0.88L253.84-0.88Q256.24-1.12 257.84-3.12L257.84-3.12L259.04-2.16" fill="#3869c5" stroke="none" stroke-width="none" transform="translate(-158.27996826171875,16.367867787679042)" style="fill: rgb(56, 105, 197); animation-play-state: running; animation-delay: 0s;"></path></g><g class="path" style="transform: scale(0.91); transform-origin: 97.84px -26.5521px; animation: 1s linear -0.165s infinite normal forwards running breath-3ae9e51b-65b0-4ef6-8670-07d6d3e9de83;"><path d="M252.00-38.80L252.00-38.80L252.00-38.80Q250.32-40.48 250.32-42.88L250.32-42.88L250.32-42.88Q250.32-45.28 252.00-47L252.00-47L252.00-47Q253.68-48.72 256.08-48.72L256.08-48.72L256.08-48.72Q258.48-48.72 260.20-47L260.20-47L260.20-47Q261.92-45.28 261.92-42.88L261.92-42.88L261.92-42.88Q261.92-40.48 260.20-38.80L260.20-38.80L260.20-38.80Q258.48-37.12 256.08-37.12L256.08-37.12L256.08-37.12Q253.68-37.12 252.00-38.80" fill="#3869c5" stroke="none" stroke-width="none" transform="translate(-158.27996826171875,16.367867787679042)" style="fill: rgb(56, 105, 197); animation-play-state: running; animation-delay: 0s;"></path></g><g class="path" style="transform: scale(0.91); transform-origin: 123.52px 1.16787px; animation: 1s linear -0.11s infinite normal forwards running breath-3ae9e51b-65b0-4ef6-8670-07d6d3e9de83;"><path d="M294.56-0.88L294.56-0.88L294.56-0.88Q296.48-0.88 298.56-3.12L298.56-3.12L299.76-2.16L299.76-2.16Q299.20-1.04 297.28-0.16L297.28-0.16L297.28-0.16Q295.36 0.72 293.04 0.72L293.04 0.72L293.04 0.72Q285.76 0.72 285.76-5.84L285.76-5.84L285.76-5.84Q285.76-8.64 287.20-15.84L287.20-15.84L287.20-15.84Q288.64-23.04 288.64-25.28L288.64-25.28L288.64-25.28Q288.64-28.72 285.36-28.72L285.36-28.72L285.36-28.72Q282.72-28.72 280.28-25.28L280.28-25.28L280.28-25.28Q277.84-21.84 276.24-15.84L276.24-15.84L273.52-0.88L273.52-0.88Q276-1.12 277.60-3.12L277.60-3.12L278.80-2.16L278.80-2.16Q276.40 0.72 272.80 0.72L272.80 0.72L272.80 0.72Q269.20 0.72 267.16-1.12L267.16-1.12L267.16-1.12Q265.12-2.96 265.12-5.92L265.12-5.92L265.12-5.92Q265.12-7.04 266.40-14.72L266.40-14.72L269.04-29.52L269.04-29.52Q266.64-29.28 265.04-27.28L265.04-27.28L263.84-28.24L263.84-28.24Q266.24-31.12 269.88-31.12L269.88-31.12L269.88-31.12Q273.52-31.12 275.52-29.28L275.52-29.28L275.52-29.28Q277.52-27.44 277.52-24.08L277.52-24.08L277.52-23.60L277.52-23.60Q280.80-31.12 287.76-31.12L287.76-31.12L287.76-31.12Q292.48-31.12 295.12-28.44L295.12-28.44L295.12-28.44Q297.76-25.76 297.76-21.04L297.76-21.04L297.76-21.04Q297.76-18.56 296.24-11.48L296.24-11.48L296.24-11.48Q294.72-4.40 294.56-0.88" fill="#3869c5" stroke="none" stroke-width="none" transform="translate(-158.27996826171875,16.367867787679042)" style="fill: rgb(56, 105, 197); animation-play-state: running; animation-delay: 0s;"></path></g><g class="path" style="transform: scale(0.91); transform-origin: 153.36px 1.16787px; animation: 1s linear -0.055s infinite normal forwards running breath-3ae9e51b-65b0-4ef6-8670-07d6d3e9de83;"><path d="M318.32-2.16L318.32-2.16Q315.92 0.72 312.32 0.72L312.32 0.72L312.32 0.72Q308.72 0.72 306.68-1.12L306.68-1.12L306.68-1.12Q304.64-2.96 304.64-5.92L304.64-5.92L304.64-5.92Q304.64-6.96 305.92-14.64L305.92-14.64L308.56-28.96L305.20-28.96L305.36-30.40L308.80-30.40L308.80-30.40Q314.72-30.40 317.52-30.88L317.52-30.88L318.64-31.12L313.12-0.88L313.12-0.88Q315.52-1.12 317.12-3.12L317.12-3.12L318.32-2.16" fill="#3869c5" stroke="none" stroke-width="none" transform="translate(-158.27996826171875,16.367867787679042)" style="fill: rgb(56, 105, 197); animation-play-state: running; animation-delay: 0s;"></path></g><g class="path" style="transform: scale(0.91); transform-origin: 157.12px -26.5521px; animation: 1s linear 0s infinite normal forwards running breath-3ae9e51b-65b0-4ef6-8670-07d6d3e9de83;"><path d="M311.28-38.80L311.28-38.80L311.28-38.80Q309.60-40.48 309.60-42.88L309.60-42.88L309.60-42.88Q309.60-45.28 311.28-47L311.28-47L311.28-47Q312.96-48.72 315.36-48.72L315.36-48.72L315.36-48.72Q317.76-48.72 319.48-47L319.48-47L319.48-47Q321.20-45.28 321.20-42.88L321.20-42.88L321.20-42.88Q321.20-40.48 319.48-38.80L319.48-38.80L319.48-38.80Q317.76-37.12 315.36-37.12L315.36-37.12L315.36-37.12Q312.96-37.12 311.28-38.80" fill="#3869c5" stroke="none" stroke-width="none" transform="translate(-158.27996826171875,16.367867787679042)" style="fill: rgb(56, 105, 197); animation-play-state: running; animation-delay: 0s;"></path></g></g>
</g>
</g>
<style id="breath-3ae9e51b-65b0-4ef6-8670-07d6d3e9de83" data-anikit="">@keyframes breath-3ae9e51b-65b0-4ef6-8670-07d6d3e9de83
{
  0% {
    animation-timing-function: cubic-bezier(0.9647,0.2413,-0.0705,0.7911);
    transform: scale(0.9099999999999999);
  }
  51% {
    animation-timing-function: cubic-bezier(0.9226,0.2631,-0.0308,0.7628);
    transform: scale(1.02994);
  }
  100% {
    transform: scale(0.9099999999999999);
  }
}</style></svg>